<svg width="14" height="14" viewBox="0 0 14 14" fill="none" xmlns="http://www.w3.org/2000/svg">
<path d="M11.0889 6.22222C10.9784 6.22222 10.8889 6.13268 10.8889 6.02222V0.2C10.8889 0.0895428 10.7993 0 10.6889 0H3.31111C3.20065 0 3.11111 0.089543 3.11111 0.2V2.91111C3.11111 3.02157 3.02157 3.11111 2.91111 3.11111H0.2C0.0895428 3.11111 0 3.20065 0 3.31111V13.8C0 13.9105 0.089543 14 0.2 14H6.02222C6.13268 14 6.22222 13.9105 6.22222 13.8V11.0889C6.22222 10.9784 6.31177 10.8889 6.42222 10.8889H7.57778C7.68823 10.8889 7.77778 10.9784 7.77778 11.0889V13.8C7.77778 13.9105 7.86732 14 7.97778 14H13.8C13.9105 14 14 13.9105 14 13.8V6.42222C14 6.31177 13.9105 6.22222 13.8 6.22222H11.0889ZM3.11111 12.2444C3.11111 12.3549 3.02157 12.4444 2.91111 12.4444H1.75556C1.6451 12.4444 1.55556 12.3549 1.55556 12.2444V11.0889C1.55556 10.9784 1.6451 10.8889 1.75556 10.8889H2.91111C3.02157 10.8889 3.11111 10.9784 3.11111 11.0889V12.2444ZM3.11111 9.13333C3.11111 9.24379 3.02157 9.33333 2.91111 9.33333H1.75556C1.6451 9.33333 1.55556 9.24379 1.55556 9.13333V7.97778C1.55556 7.86732 1.6451 7.77778 1.75556 7.77778H2.91111C3.02157 7.77778 3.11111 7.86732 3.11111 7.97778V9.13333ZM3.11111 6.02222C3.11111 6.13268 3.02157 6.22222 2.91111 6.22222H1.75556C1.6451 6.22222 1.55556 6.13268 1.55556 6.02222V4.86667C1.55556 4.75621 1.6451 4.66667 1.75556 4.66667H2.91111C3.02157 4.66667 3.11111 4.75621 3.11111 4.86667V6.02222ZM6.22222 9.13333C6.22222 9.24379 6.13268 9.33333 6.02222 9.33333H4.86667C4.75621 9.33333 4.66667 9.24379 4.66667 9.13333V7.97778C4.66667 7.86732 4.75621 7.77778 4.86667 7.77778H6.02222C6.13268 7.77778 6.22222 7.86732 6.22222 7.97778V9.13333ZM6.22222 6.02222C6.22222 6.13268 6.13268 6.22222 6.02222 6.22222H4.86667C4.75621 6.22222 4.66667 6.13268 4.66667 6.02222V4.86667C4.66667 4.75621 4.75621 4.66667 4.86667 4.66667H6.02222C6.13268 4.66667 6.22222 4.75621 6.22222 4.86667V6.02222ZM6.22222 2.91111C6.22222 3.02157 6.13268 3.11111 6.02222 3.11111H4.86667C4.75621 3.11111 4.66667 3.02157 4.66667 2.91111V1.75556C4.66667 1.6451 4.75621 1.55556 4.86667 1.55556H6.02222C6.13268 1.55556 6.22222 1.6451 6.22222 1.75556V2.91111ZM9.33333 9.13333C9.33333 9.24379 9.24379 9.33333 9.13333 9.33333H7.97778C7.86732 9.33333 7.77778 9.24379 7.77778 9.13333V7.97778C7.77778 7.86732 7.86732 7.77778 7.97778 7.77778H9.13333C9.24379 7.77778 9.33333 7.86732 9.33333 7.97778V9.13333ZM9.33333 6.02222C9.33333 6.13268 9.24379 6.22222 9.13333 6.22222H7.97778C7.86732 6.22222 7.77778 6.13268 7.77778 6.02222V4.86667C7.77778 4.75621 7.86732 4.66667 7.97778 4.66667H9.13333C9.24379 4.66667 9.33333 4.75621 9.33333 4.86667V6.02222ZM9.33333 2.91111C9.33333 3.02157 9.24379 3.11111 9.13333 3.11111H7.97778C7.86732 3.11111 7.77778 3.02157 7.77778 2.91111V1.75556C7.77778 1.6451 7.86732 1.55556 7.97778 1.55556H9.13333C9.24379 1.55556 9.33333 1.6451 9.33333 1.75556V2.91111ZM12.4444 12.2444C12.4444 12.3549 12.3549 12.4444 12.2444 12.4444H11.0889C10.9784 12.4444 10.8889 12.3549 10.8889 12.2444V11.0889C10.8889 10.9784 10.9784 10.8889 11.0889 10.8889H12.2444C12.3549 10.8889 12.4444 10.9784 12.4444 11.0889V12.2444ZM12.4444 9.13333C12.4444 9.24379 12.3549 9.33333 12.2444 9.33333H11.0889C10.9784 9.33333 10.8889 9.24379 10.8889 9.13333V7.97778C10.8889 7.86732 10.9784 7.77778 11.0889 7.77778H12.2444C12.3549 7.77778 12.4444 7.86732 12.4444 7.97778V9.13333Z" fill="#3964D8"/>
</svg>
