<svg width="24" height="24" viewBox="0 0 24 24" fill="none" xmlns="http://www.w3.org/2000/svg">
  <path d="M4.5 11.75C4.5 7.74594 7.74594 4.5 11.75 4.5C13.8234 4.5 15.6929 5.36974 17.0149 6.76569C17.2048 6.96618 17.5213 6.97479 17.7218 6.78491C17.9223 6.59503 17.9309 6.27856 17.741 6.07806C16.238 4.49101 14.1093 3.5 11.75 3.5C7.19365 3.5 3.5 7.19365 3.5 11.75C3.5 16.3063 7.19365 20 11.75 20C16.3063 20 20 16.3063 20 11.75C20 10.9228 19.8781 10.1231 19.6509 9.36849C19.5713 9.10407 19.2924 8.95424 19.028 9.03384C18.7636 9.11344 18.6138 9.39233 18.6934 9.65675C18.8927 10.3189 19 11.0215 19 11.75C19 15.7541 15.7541 19 11.75 19C7.74594 19 4.5 15.7541 4.5 11.75Z" fill="#3964D8"/>
  <path d="M20.3536 6.85355C20.5488 6.65829 20.5488 6.34171 20.3536 6.14645C20.1583 5.95118 19.8417 5.95118 19.6464 6.14645L11.5 14.2929L8.35355 11.1464C8.15829 10.9512 7.84171 10.9512 7.64645 11.1464C7.45118 11.3417 7.45118 11.6583 7.64645 11.8536L11.1464 15.3536C11.3417 15.5488 11.6583 15.5488 11.8536 15.3536L20.3536 6.85355Z" fill="#3964D8"/>
</svg>
