<svg width="24" height="24" viewBox="0 0 24 24" fill="none" xmlns="http://www.w3.org/2000/svg">
<path d="M13.3333 4.5C13.3333 4.22386 13.1095 4 12.8333 4H11.1667C10.8905 4 10.6667 4.22386 10.6667 4.5V10H9.04031C8.62106 10 8.38797 10.485 8.64988 10.8123L11.6096 14.512C11.8097 14.7622 12.1903 14.7622 12.3904 14.512L15.3501 10.8123C15.612 10.485 15.3789 10 14.9597 10H13.3333V4.5Z" fill="#9CB1C7"/>
<path d="M5 12V16C5 17.1046 5.89543 18 7 18H17C18.1046 18 19 17.1046 19 16V12" stroke="#9CB1C7" stroke-width="2" stroke-linecap="round"/>
</svg>
