<svg width="142" height="14" viewBox="0 0 142 14" fill="none" xmlns="http://www.w3.org/2000/svg">
<path d="M9.98075 7.96442C9.98075 9.58219 9.61088 10.7911 8.86669 11.5911C8.1225 12.3911 7.05746 12.7955 5.66266 12.7955C4.25449 12.7955 3.18054 12.3955 2.4408 11.5911C1.70107 10.7911 1.3312 9.57775 1.3312 7.96442V0.426636H0.368652V8.00442C0.368652 9.85775 0.832101 11.2711 1.75454 12.2355C2.67698 13.2 3.97375 13.6844 5.64483 13.6844C7.31592 13.6844 8.61714 13.2 9.54849 12.2355C10.4798 11.2711 10.9433 9.86219 10.9433 8.00442V0.426636H9.98075V7.96442Z" fill="white"/>
<path d="M16.723 1.2933H21.4734V13.5866H22.4315V1.2933H27.1818V0.426636H16.723V1.2933Z" fill="white"/>
<path d="M34.9535 1.96893C35.8626 1.46671 36.8831 1.21782 38.015 1.21782C38.8438 1.21782 39.6014 1.34226 40.2876 1.58226C40.9739 1.82671 41.5889 2.22671 42.1459 2.77337L42.7475 2.13337C42.1682 1.54671 41.4774 1.09782 40.6664 0.791152C39.8554 0.48893 38.9641 0.333374 37.9971 0.333374C36.6781 0.333374 35.4927 0.622263 34.4455 1.20004C33.3983 1.77782 32.5739 2.57337 31.9768 3.58671C31.3796 4.60004 31.0811 5.74226 31.0811 7.00893C31.0811 8.2756 31.3796 9.41338 31.9768 10.4312C32.5739 11.4445 33.3983 12.2445 34.4455 12.8178C35.4927 13.3956 36.6736 13.6845 37.9793 13.6845C38.8973 13.6845 39.7663 13.5423 40.5907 13.2534C41.4151 12.9645 42.1147 12.5467 42.694 11.9912V7.06226H41.7671V11.5912C40.7734 12.3912 39.5256 12.7956 38.015 12.7956C36.8831 12.7956 35.867 12.5423 34.9624 12.0356C34.0578 11.5289 33.3448 10.8312 32.8234 9.94671C32.3021 9.06226 32.0391 8.08449 32.0391 7.00449C32.0391 5.9156 32.2976 4.92893 32.8101 4.04449C33.3315 3.16004 34.0445 2.47115 34.9535 1.96893Z" fill="white"/>
<path d="M61.9048 1.96893C62.8139 1.46671 63.8344 1.21782 64.9663 1.21782C65.7951 1.21782 66.5527 1.34226 67.2389 1.58226C67.9252 1.82671 68.5402 2.22671 69.0972 2.77337L69.6988 2.13337C69.1195 1.54671 68.4288 1.09782 67.6177 0.791152C66.8067 0.48893 65.9154 0.333374 64.9484 0.333374C63.6294 0.333374 62.444 0.622263 61.3968 1.20004C60.3496 1.77782 59.5252 2.57337 58.9281 3.58671C58.3309 4.60004 58.0323 5.74226 58.0323 7.00893C58.0323 8.2756 58.3309 9.41338 58.9281 10.4312C59.5252 11.4445 60.3496 12.2445 61.3968 12.8178C62.444 13.3956 63.6249 13.6845 64.9306 13.6845C65.8486 13.6845 66.7176 13.5423 67.542 13.2534C68.3664 12.9645 69.066 12.5467 69.6453 11.9912V7.06226H68.7229V11.5912C67.7291 12.3912 66.4814 12.7956 64.9707 12.7956C63.8388 12.7956 62.8228 12.5423 61.9182 12.0356C61.0136 11.5289 60.3006 10.8312 59.7792 9.94671C59.2578 9.06226 58.9949 8.08449 58.9949 7.00449C58.9949 5.9156 59.2534 4.92893 59.7658 4.04449C60.2827 3.16004 60.9957 2.47115 61.9048 1.96893Z" fill="white"/>
<path d="M86.2893 7.48442C86.8241 6.77775 87.0915 5.90219 87.0915 4.86219C87.0915 3.47108 86.6191 2.38219 85.6788 1.59997C84.7386 0.817747 83.4373 0.426636 81.7796 0.426636H77.0471V13.5866H78.0097V9.27997H81.7796C82.1673 9.27997 82.5951 9.24886 83.063 9.18664L86.2091 13.5866H87.3009L84.0033 8.98219C84.9926 8.69331 85.7546 8.19553 86.2893 7.48442ZM81.7752 8.43553H78.0052V1.2933H81.7752C83.1833 1.2933 84.2573 1.60441 84.997 2.22219C85.7368 2.84441 86.1111 3.72441 86.1111 4.86219C86.1111 6.00442 85.7412 6.88442 84.997 7.50219C84.2573 8.12442 83.1833 8.43553 81.7752 8.43553Z" fill="white"/>
<path d="M103.21 1.20004C102.167 0.622263 100.999 0.333374 99.7026 0.333374C98.4058 0.333374 97.2383 0.622263 96.1955 1.20893C95.1528 1.79115 94.3328 2.59115 93.7357 3.60449C93.1385 4.61782 92.84 5.7556 92.84 7.00893C92.84 8.26226 93.1385 9.3956 93.7357 10.4089C94.3328 11.4223 95.1528 12.2223 96.1955 12.8045C97.2383 13.3867 98.4058 13.68 99.7026 13.68C100.999 13.68 102.167 13.3912 103.21 12.8134C104.252 12.2356 105.072 11.44 105.669 10.4267C106.267 9.41337 106.565 8.27115 106.565 7.00449C106.565 5.73782 106.267 4.60004 105.669 3.58226C105.072 2.56893 104.252 1.77337 103.21 1.20004ZM104.814 9.96893C104.297 10.8534 103.593 11.5467 102.702 12.0445C101.81 12.5467 100.812 12.7956 99.7026 12.7956C98.593 12.7956 97.5948 12.5467 96.6946 12.0445C95.7945 11.5423 95.0904 10.8489 94.5734 9.96893C94.0565 9.08449 93.8025 8.09782 93.8025 7.00893C93.8025 5.92004 94.061 4.93337 94.5734 4.04893C95.0904 3.16449 95.7945 2.4756 96.6946 1.97337C97.5948 1.47115 98.593 1.22226 99.7026 1.22226C100.812 1.22226 101.806 1.4756 102.702 1.97337C103.593 2.4756 104.297 3.16449 104.814 4.04893C105.331 4.93337 105.585 5.92004 105.585 7.00893C105.585 8.09782 105.326 9.08449 104.814 9.96893Z" fill="white"/>
<path d="M122.781 7.96442C122.781 9.58219 122.411 10.7911 121.667 11.5911C120.928 12.3911 119.858 12.7955 118.463 12.7955C117.055 12.7955 115.981 12.3955 115.241 11.5911C114.502 10.7911 114.127 9.57775 114.127 7.96442V0.426636H113.165V8.00442C113.165 9.85775 113.628 11.2711 114.551 12.2355C115.473 13.2 116.77 13.6844 118.441 13.6844C120.112 13.6844 121.413 13.2 122.34 12.2355C123.272 11.2711 123.735 9.86219 123.735 8.00442V0.426636H122.772V7.96442H122.781Z" fill="white"/>
<path d="M140.058 1.60449C139.118 0.822263 137.817 0.431152 136.155 0.431152H131.427V13.5912H132.389V9.28893H136.159C137.817 9.28893 139.118 8.89782 140.063 8.1156C141.003 7.33337 141.475 6.25337 141.475 4.87115C141.471 3.47115 140.998 2.38671 140.058 1.60449ZM139.376 7.49337C138.637 8.10671 137.563 8.41337 136.155 8.41337H132.385V1.29337H136.155C137.563 1.29337 138.637 1.60449 139.376 2.22226C140.116 2.84449 140.486 3.72448 140.486 4.86226C140.49 6.00448 140.121 6.88004 139.376 7.49337Z" fill="white"/>
</svg>
