<svg width="226" height="22" viewBox="0 0 226 22" fill="none" xmlns="http://www.w3.org/2000/svg">
<path d="M15.6598 12.5431C15.6598 15.1316 15.0698 17.0658 13.8827 18.3458C12.6955 19.6258 10.9965 20.2729 8.77146 20.2729C6.5251 20.2729 4.81189 19.6329 3.63183 18.3458C2.45178 17.0658 1.86175 15.1244 1.86175 12.5431V0.482666H0.326262V12.6071C0.326262 15.5724 1.06557 17.8338 2.53708 19.3769C4.0086 20.92 6.07724 21.6951 8.74303 21.6951C11.4088 21.6951 13.4846 20.92 14.9703 19.3769C16.456 17.8338 17.1953 15.5796 17.1953 12.6071V0.482666H15.6598V12.5431Z" fill="#131D2D"/>
<path d="M26.4154 1.86933H33.9933V21.5387H35.5217V1.86933H43.0996V0.482666H26.4154V1.86933Z" fill="#131D2D"/>
<path d="M55.4973 2.95023C56.9475 2.14668 58.5754 1.74845 60.381 1.74845C61.7032 1.74845 62.9117 1.94757 64.0065 2.33157C65.1012 2.72268 66.0822 3.36268 66.9708 4.23734L67.9305 3.21334C67.0064 2.27468 65.9045 1.55645 64.6107 1.06579C63.3169 0.582232 61.8952 0.333344 60.3526 0.333344C58.2484 0.333344 56.3575 0.795566 54.6869 1.72001C53.0163 2.64445 51.7012 3.91734 50.7486 5.53868C49.7961 7.16001 49.3198 8.98757 49.3198 11.0142C49.3198 13.0409 49.7961 14.8613 50.7486 16.4898C51.7012 18.1111 53.0163 19.3911 54.6869 20.3085C56.3575 21.2329 58.2413 21.6951 60.3241 21.6951C61.7885 21.6951 63.1747 21.4676 64.4899 21.0053C65.805 20.5431 66.9211 19.8747 67.8452 18.9858V11.0996H66.3666V18.3458C64.7813 19.6258 62.7909 20.2729 60.381 20.2729C58.5754 20.2729 56.9546 19.8676 55.5115 19.0569C54.0684 18.2462 52.931 17.1298 52.0993 15.7147C51.2676 14.2996 50.8482 12.7351 50.8482 11.0071C50.8482 9.2649 51.2605 7.68623 52.078 6.27112C52.9097 4.85601 54.0471 3.75379 55.4973 2.95023Z" fill="#131D2D"/>
<path d="M98.491 2.95023C99.9412 2.14668 101.569 1.74845 103.375 1.74845C104.697 1.74845 105.905 1.94757 107 2.33157C108.095 2.72268 109.076 3.36268 109.965 4.23734L110.924 3.21334C110 2.27468 108.898 1.55645 107.604 1.06579C106.311 0.582232 104.889 0.333344 103.346 0.333344C101.242 0.333344 99.3512 0.795566 97.6806 1.72001C96.0101 2.64445 94.695 3.91734 93.7424 5.53868C92.7898 7.16001 92.3135 8.98757 92.3135 11.0142C92.3135 13.0409 92.7898 14.8613 93.7424 16.4898C94.695 18.1111 96.0101 19.3911 97.6806 20.3085C99.3512 21.2329 101.235 21.6951 103.318 21.6951C104.782 21.6951 106.168 21.4676 107.484 21.0053C108.799 20.5431 109.915 19.8747 110.839 18.9858V11.0996H109.367V18.3458C107.782 19.6258 105.792 20.2729 103.382 20.2729C101.576 20.2729 99.9554 19.8676 98.5124 19.0569C97.0693 18.2462 95.9319 17.1298 95.1002 15.7147C94.2684 14.2996 93.849 12.7351 93.849 11.0071C93.849 9.2649 94.2613 7.68623 95.0788 6.27112C95.9034 4.85601 97.0408 3.75379 98.491 2.95023Z" fill="#131D2D"/>
<path d="M137.39 11.7751C138.243 10.6444 138.67 9.24356 138.67 7.57956C138.67 5.35378 137.916 3.61156 136.416 2.36C134.916 1.10844 132.841 0.482666 130.196 0.482666H122.647V21.5387H124.182V14.648H130.196C130.815 14.648 131.497 14.5982 132.243 14.4987L137.262 21.5387H139.004L133.743 14.1716C135.321 13.7093 136.537 12.9129 137.39 11.7751ZM130.189 13.2969H124.175V1.86933H130.189C132.435 1.86933 134.149 2.36711 135.329 3.35556C136.509 4.35111 137.106 5.75911 137.106 7.57956C137.106 9.40711 136.516 10.8151 135.329 11.8036C134.149 12.7991 132.435 13.2969 130.189 13.2969Z" fill="#131D2D"/>
<path d="M164.382 1.72001C162.719 0.795566 160.856 0.333344 158.787 0.333344C156.719 0.333344 154.856 0.795566 153.193 1.73423C151.529 2.66579 150.221 3.94579 149.269 5.56712C148.316 7.18846 147.84 9.0089 147.84 11.0142C147.84 13.0196 148.316 14.8329 149.269 16.4542C150.221 18.0756 151.529 19.3556 153.193 20.2871C154.856 21.2187 156.719 21.688 158.787 21.688C160.856 21.688 162.719 21.2258 164.382 20.3013C166.046 19.3769 167.354 18.104 168.306 16.4827C169.259 14.8613 169.735 13.0338 169.735 11.0071C169.735 8.98046 169.259 7.16001 168.306 5.53157C167.354 3.91023 166.046 2.63734 164.382 1.72001ZM166.941 15.7502C166.117 17.1653 164.993 18.2747 163.572 19.0711C162.15 19.8747 160.558 20.2729 158.787 20.2729C157.017 20.2729 155.425 19.8747 153.989 19.0711C152.553 18.2676 151.43 17.1582 150.605 15.7502C149.781 14.3351 149.375 12.7565 149.375 11.0142C149.375 9.27201 149.788 7.69334 150.605 6.27823C151.43 4.86312 152.553 3.7609 153.989 2.95734C155.425 2.15379 157.017 1.75557 158.787 1.75557C160.558 1.75557 162.143 2.1609 163.572 2.95734C164.993 3.7609 166.117 4.86312 166.941 6.27823C167.766 7.69334 168.171 9.27201 168.171 11.0142C168.171 12.7565 167.759 14.3351 166.941 15.7502Z" fill="#131D2D"/>
<path d="M195.604 12.5431C195.604 15.1316 195.014 17.0658 193.827 18.3458C192.646 19.6258 190.94 20.2729 188.715 20.2729C186.469 20.2729 184.756 19.6329 183.576 18.3458C182.396 17.0658 181.799 15.1244 181.799 12.5431V0.482666H180.263V12.6071C180.263 15.5724 181.002 17.8338 182.474 19.3769C183.945 20.92 186.014 21.6951 188.68 21.6951C191.346 21.6951 193.421 20.92 194.9 19.3769C196.386 17.8338 197.125 15.5796 197.125 12.6071V0.482666H195.589V12.5431H195.604Z" fill="#131D2D"/>
<path d="M223.164 2.36714C221.664 1.11558 219.589 0.489807 216.937 0.489807H209.395V21.5458H210.93V14.6623H216.944C219.589 14.6623 221.664 14.0365 223.171 12.7849C224.671 11.5334 225.425 9.80536 225.425 7.59381C225.418 5.35381 224.664 3.6187 223.164 2.36714ZM222.077 11.7894C220.897 12.7707 219.183 13.2614 216.937 13.2614H210.923V1.86936H216.937C219.183 1.86936 220.897 2.36714 222.077 3.35559C223.257 4.35114 223.847 5.75914 223.847 7.57958C223.854 9.40714 223.264 10.808 222.077 11.7894Z" fill="#131D2D"/>
</svg>
