<svg width="22" height="22" viewBox="0 0 22 22" fill="none" xmlns="http://www.w3.org/2000/svg">
<g clip-path="url(#clip0)">
<path d="M20.8274 8.91186L3.33047 0.445124C2.17794 -0.113476 0.79084 0.36799 0.232195 1.52052C-0.0526537 2.1082 -0.0764779 2.78873 0.166565 3.39493L2.89991 10.2259H22C21.7989 9.64968 21.3771 9.17696 20.8274 8.91186Z" fill="#9CB1C7"/>
<path d="M2.89845 11.7723L0.165097 18.6049C-0.309213 19.7978 0.273302 21.1493 1.46619 21.6237C1.73627 21.7311 2.02415 21.7869 2.3148 21.7881C2.666 21.7881 3.01268 21.7089 3.32896 21.5562L20.8259 13.0864C21.3756 12.8213 21.7975 12.3486 21.9985 11.7723H2.89845Z" fill="#9CB1C7"/>
</g>
<defs>
<clipPath id="clip0">
<rect width="22" height="22" fill="white"/>
</clipPath>
</defs>
</svg>
