<svg width="180" height="71" viewBox="0 0 180 71" fill="none" xmlns="http://www.w3.org/2000/svg">
<path d="M29.6699 0.00562955C26.4458 0.169478 19.5327 4.17073 12.9952 9.72708C10.6883 11.7185 8.91986 14.2408 6.88432 16.5447C4.58576 18.6905 0.454572 25.8616 0.0961993 28.3271C-0.436727 31.9935 1.25378 33.9606 4.93871 33.9606C7.91571 33.9606 10.931 32.7462 16.2979 29.3883C19.7503 27.2282 20.097 27.1526 19.5939 28.662C19.0393 30.3258 20.053 31.3952 21.784 30.9726C23.0407 30.6517 23.755 30.1688 24.6957 29.3256C26.0949 28.7305 26.1864 28.3677 26.507 29.1474C27.1264 30.6545 32.1018 30.3244 36.0415 28.5152C40.0666 26.6667 40.5132 26.5945 40.5132 27.7902C40.5132 28.7942 42.3675 29.6615 43.3281 29.1073C45.315 27.9609 43.113 32.0717 40.184 34.9778C39.7975 35.3612 38.3977 36.9372 37.0734 38.4801C35.7491 40.0229 31.7784 43.9007 28.2483 47.0964C24.7183 50.2921 21.512 53.4511 21.123 54.1171C20.4849 55.2096 20.607 55.2855 22.3806 54.8873C24.2817 54.4605 28.3083 50.9167 33.9374 44.7168C36.1818 42.2448 44.4779 36.8334 46.5936 35.7725C46.7667 35.6856 47.7831 35.2145 48.9876 34.3933C50.192 33.572 53.2647 31.9243 55.816 30.7317C59.9646 28.7925 60.5461 28.6716 61.3196 29.5777C63.3939 32.0075 69.89 31.183 75.7705 27.745C78.5882 26.0977 79.7927 23.4638 77.1854 22.9044C75.2634 22.492 73.5196 22.726 71.7745 23.0423C70.3768 23.2957 70.5538 22.6053 72.1602 22.2131C73.7085 21.9912 75.2138 21.9084 76.7205 21.9058C77.0425 21.8815 77.7568 21.9325 79.0773 22.1078C84.3277 22.8042 90.2801 24.3202 93.0674 25.6714C96.1911 27.1857 97.0164 26.6685 96.2861 23.9523C95.9977 22.9926 95.9092 22.8025 95.5585 21.4652C95.17 19.9842 95.5296 16.1933 97.9515 13.8652C100.499 11.4166 105.762 9.38385 113.436 7.88676C124.249 6.96295 136.082 6.20212 146.357 7.17591C147.024 7.248 149.25 7.48775 149.94 7.5363C151.202 7.8247 151.603 7.91138 155.401 8.55539C161.712 9.62579 172.455 12.6383 175.351 14.6868C176.736 15.6665 177.071 16.4646 177.071 18.7837C177.071 22.1268 175.545 24.3942 171.502 27.0613C164.613 31.6048 163.01 32.3084 161.053 33.3596C156.42 35.8491 152.131 38.9941 147.703 40.995C145.171 42.1249 143.56 43.1087 142.2 43.8628C140.84 44.6169 134.951 47.2135 135.644 49.5574C136.005 50.7808 141.061 51.6236 146.113 51.4277C161.046 50.8486 162.52 50.9458 166.517 52.7711C169.668 54.2105 170.465 54.9073 170.902 56.6083C171.843 60.2685 171.759 60.9652 170.1 63.2477C169.205 64.4794 168.472 65.6182 168.472 65.7791C168.472 65.9401 168.929 66.1433 169.141 66.0762C170.012 65.8004 172.068 63.008 172.594 60.3251C173.878 53.77 168.324 50.195 156.254 49.8058C152.75 49.6929 149.731 49.7434 149.545 49.9174C148.763 50.6479 137.264 50.2196 137.648 49.0707C138.448 46.6802 140.639 46.0557 141.858 45.4077C142.24 45.2048 145.082 43.6781 148.377 42.1666C151.673 40.6552 154.523 39.275 154.713 39.0984C162.53 32.5497 177.998 28.5197 179.993 18.4525C180.158 16.5786 177.399 13.1261 171.362 11.4818C169.486 10.9071 167.39 10.3951 165.892 9.84116C164.473 9.28283 162.538 8.70003 161.592 8.54657C160.646 8.39316 157.705 7.84501 155.057 7.32733C147.237 5.79883 142.543 5.42677 132.354 5.52731C120.961 5.6397 114.201 6.16326 111.372 7.15302C110.804 7.35158 108.792 7.84528 106.9 8.25056C103.54 9.39742 98.7084 10.9177 96.6415 13.0849C94.5622 15.3381 93.5664 19.9103 94.1301 22.5413C94.4991 24.2641 94.0007 24.4003 92.9666 24.0207C88.8531 22.5107 80.3414 21.053 76.4168 21.1858C70.9117 21.3722 68.4215 22.1378 64.9071 24.7281C63.4092 25.8322 59.7069 27.8262 56.68 29.1586C53.653 30.491 49.1042 32.8383 46.5704 34.3756C44.6059 35.5158 44.0989 35.6568 40.6975 37.8856C40.4517 38.1099 40.1787 38.4561 39.7688 38.4561C39.3589 38.4561 39.5911 37.7707 40.2848 36.9333C44.874 31.3938 49.7497 26.1161 52.7955 23.391C54.7432 21.6484 56.336 19.8435 56.336 19.3795C56.336 17.976 53.6648 19.7301 49.5344 23.845C46.1057 27.2611 43.8732 28.3332 42.9855 26.9923C42.7871 26.6926 43.2699 25.8023 44.0577 25.0129C46.417 22.6487 44.5839 22.1129 41.4309 24.2452C37.6237 26.8199 34.965 28.0386 31.629 28.7384C29.1566 29.257 28.7013 29.1749 28.0858 28.1012C27.6972 27.4234 27.5749 26.5725 27.8143 26.2109C28.6153 25.0011 28.6522 21.1151 27.8627 21.1193C26.63 21.1266 23.6704 22.7369 21.3594 24.6592C19.0597 26.5721 13.0614 30.2457 10.2434 31.4679C9.2975 31.8782 7.13046 32.246 5.42779 32.2846C2.38821 32.3533 2.32802 32.3144 2.10763 30.1559C1.90348 28.1563 2.4714 26.3342 4.12445 23.6845C4.45501 23.1547 5.33411 21.7096 6.07812 20.4733C6.82213 19.237 8.38371 17.2364 9.54742 16.0278C10.815 14.6442 11.5976 12.0405 15.8142 9.55514C17.7463 7.78898 19.4679 6.34387 19.6409 6.34387C19.814 6.34387 21.0981 5.50032 22.4948 4.46985C25.2797 2.41522 29.8509 0.456694 30.4828 1.04664C29.3643 7.03822 28.6624 9.45085 27.2702 11.0228C24.7095 13.9139 20.4372 19.4063 16.4135 19.8311C15.4715 19.8311 17.6839 16.8733 20.6567 14.16C21.8841 13.0397 22.3376 12.1241 22.3376 12.1241C23.4584 10.9044 24.5346 9.89362 25.0478 8.35471C25.9237 5.55553 23.8249 7.20504 19.1653 12.9783C14.4405 18.8325 13.3042 21.7577 15.7551 21.7577C16.5076 21.7577 16.7944 21.2907 17.1229 21.1155C17.5572 20.8839 17.688 20.818 18.3779 20.4733C18.9862 20.1694 21.3457 19.0558 23.4772 17.113C25.9639 15.4305 27.1755 13.1836 28.4136 11.4317C29.6205 9.72392 29.6681 9.67709 31.0821 7.09776C31.3823 6.55007 31.9576 5.08914 31.942 3.32587C31.9179 0.568438 31.7397 0.218926 30.2652 0.0243712C30.0842 9.7426e-05 29.8849 -0.00530622 29.6699 0.00488878L29.6699 0.00562955ZM26.8496 22.8957C27.4985 23.0588 24.9564 25.9777 24.9564 25.9777C24.3328 27.1201 24.6601 26.7842 23.1707 28.1415C22.5555 28.702 21.9643 29.897 21.3998 29.2918C21.5843 26.5741 24.2865 24.4418 25.127 23.726C25.9162 23.2051 26.4042 22.9584 26.6749 22.9019C26.7483 22.8873 26.8063 22.8849 26.8496 22.8946L26.8496 22.8957ZM75.2828 23.8314C75.5579 23.8327 75.7769 23.8566 75.9197 23.9079C77.5698 24.499 77.1612 25.8633 75.0826 26.7064C74.0421 27.1284 71.6952 28.066 69.8666 28.7899C65.9055 30.358 63.3243 30.4754 62.764 29.1123C62.3161 28.0227 64.5503 26.3357 66.2481 25.7292C69.0212 24.6532 72.1536 23.8405 75.2828 23.8313V23.8314ZM168.713 65.3599C168.588 65.3878 167.593 66.5417 167.495 66.6629C167.249 66.9665 165.703 67.923 164 68.9277C162.297 69.9325 160.904 70.8494 160.904 70.9661C160.904 71.0826 161.722 70.8889 162.721 70.5345C165.248 69.6376 170.827 65.4593 169.989 64.976C169.799 64.8666 168.839 65.3321 168.713 65.3599Z" fill="black"/>
</svg>
