<svg width="19" height="18" viewBox="0 0 19 18" fill="none" xmlns="http://www.w3.org/2000/svg">
  <circle cx="9.75" cy="9" r="7" fill="#ED1A3D"/>
  <path d="M12.9323 6.52543C13.1275 6.33017 13.1275 6.01358 12.9323 5.81832C12.737 5.62306 12.4204 5.62306 12.2252 5.81832L9.7503 8.2932L7.27543 5.81833C7.08017 5.62307 6.76358 5.62307 6.56832 5.81833C6.37306 6.01359 6.37306 6.33017 6.56832 6.52543L9.04319 9.00031L6.56832 11.4752C6.37306 11.6704 6.37306 11.987 6.56832 12.1823C6.76358 12.3775 7.08017 12.3775 7.27543 12.1823L9.7503 9.70741L12.2252 12.1823C12.4204 12.3776 12.737 12.3776 12.9323 12.1823C13.1275 11.987 13.1275 11.6704 12.9323 11.4752L10.4574 9.00031L12.9323 6.52543Z" fill="white"/>
</svg>
